<svg xmlns="http://www.w3.org/2000/svg" viewBox="0 0 552 320"><defs><style>.a{fill:#3586bc;}.b{fill:#84dbff;}.c{fill:#324a5e;}.d{fill:#fff;}.e{fill:#ff7058;}.f{fill:#e6e9ee;}.g{fill:#f1543f;}.h{fill:#ffd05b;}</style></defs><title>strandArtboard 2</title><path class="a" d="M278.4,212.85c-.9,6.48-3.77,10.41-8,11.15h-.49a1.49,1.49,0,0,1-2.79-1,20.49,20.49,0,0,0,0-2.22v-3.2c0-.82-.08-1.72,0-2.54.17-3.85.17-7.62.17-11.31,0-2.38.08-6.4.08-10.25,0-14.93.16-12.06,0-18-.08-1.64-.08-3.2-.25-4.68-.16-1.64-.41-4.26,1.64-4.26h.33a4.67,4.67,0,0,1,2.87.9c2.79,2.38,4.84,7.14,5.41,10.42a28.52,28.52,0,0,1,.25,6.88,11.2,11.2,0,0,1-2.54,7,9.27,9.27,0,0,1-1.81,1.89l.58.49a11.93,11.93,0,0,1,1.8,2.87,28.78,28.78,0,0,1,3,12.55A22.73,22.73,0,0,1,278.4,212.85Zm-5.74-23a9.36,9.36,0,0,0,1.88-5.25,25.37,25.37,0,0,0-.24-6.15c-.41-2.71-2.13-6.72-4.18-8.53v.66c0,1.64.24,3.36.24,4.75.25,5.83,0,11.07,0,16.57A6,6,0,0,0,272.66,189.89Zm2.7,22.55c.66-4.51-.24-9.19-2.54-14.11a6.07,6.07,0,0,0-1.23-2,6.68,6.68,0,0,0-1.23-1v8.37c0,3.69,0,7.54-.24,11.48v5.65C273.72,220.06,275,215.23,275.36,212.44Z"/><path class="a" d="M290.86,168c1.15,4.43,2.95,18.37,3.69,26.82.33,4.18.49,8.36.74,12.38.16,5.25.41,10.66,1.07,16a1.54,1.54,0,1,1-3,.33c-.57-5.41-.9-10.91-1.15-16.16-.08-2.95-.24-5.9-.41-8.85a12.41,12.41,0,0,1-2,.08,5.52,5.52,0,0,0-1.81.16c-.16,1.15-.24,2.22-.33,3.37l-.49,6.23c-.16,2.7-.33,5.57-.65,8.36a31.36,31.36,0,0,1-1.4,6.89c-.57,1.8-3.77,1.23-2.87-1.07a25.78,25.78,0,0,0,1.23-6.23c.33-2.62.49-5.33.66-8.2l.49-6.31c.41-4.18.66-8.61,1-12.88l.5-8c.08-1.15.32-2.54.49-3.94.49-3.36.49-4.26.57-4.83a22.46,22.46,0,0,1,.58-3.94A1.58,1.58,0,0,1,290.86,168Zm-5.49-8c1.64-1.07,3.11,1.31,2.46,2.46a2,2,0,0,1-2.3.74C283.56,162.91,283.89,160.94,285.37,160Zm4.18,18.12-.41,3.12-.49,7.87-.49,6.56a9.06,9.06,0,0,1,1.47-.08,13.29,13.29,0,0,0,1.89-.09v-.41C291.11,190.38,290.37,183.66,289.55,178.08Zm3.36-15.33a2,2,0,0,1-.33-2.14,1.79,1.79,0,0,1,1.64-.82c1,0,2.79,1.23,1.73,2.55a2.51,2.51,0,0,1-1.81,1.06A1.45,1.45,0,0,1,292.91,162.75Z"/><path class="a" d="M302.75,223c-2.05-2.71-2.71-7.22-2.21-10.34a1.53,1.53,0,1,1,3,.41c-.41,2.79.33,6.32,1.64,8,.9,1.31,2.46.74,3.36-.08,1.31-1.23,1.89-4.84,1.48-7.22a77.61,77.61,0,0,0-1.56-7.62c-.33-1.4-.74-2.63-2.79-10.83l-.9-3.36c-1.15-4.1-2.54-9.18-3.11-12.14a40.42,40.42,0,0,1-.5-6.23c-.08-2.21.74-5.08,2.55-6.31a3.91,3.91,0,0,1,3.93-.25c3.69,1.56,4.67,6.89,4,10.17-.41,2.05-3.44,1.31-3-.66.49-2.13-.17-5.82-2.14-6.64s-2.29,2.71-2.29,3.69a43.24,43.24,0,0,0,.49,5.66c.57,2.87,2,8.12,3,11.89l.91,3.36,2.78,10.91c.58,2.38,1.07,4.26,1.64,7.87.5,3.28.09,7.54-2.37,9.92S304.72,225.48,302.75,223Z"/><path class="a" d="M323.08,167.34c2.38,0,3.45.08,4.52.16,2,.17,2.46.33,2.95.66A1.5,1.5,0,0,1,329,170.7a12.81,12.81,0,0,0-3.28-.25c-.08,2.79.08,4.92.33,9.11.33,5.16.49,10.74.74,17.63.08,1.64.08,3.77,0,5.57a99.89,99.89,0,0,0,.24,11.15q.25,4.18.25,8.86a1.52,1.52,0,1,1-3,0c0-3-.16-5.9-.32-8.69-.17-3.61-.33-7.3-.25-11.4.08-1.72.08-3.77,0-5.41l-.74-17.55c-.16-3.53-.41-6-.33-9.35a22.56,22.56,0,0,0-4.42.25,1.56,1.56,0,1,1-.66-3A30.39,30.39,0,0,1,323.08,167.34Z"/><path class="a" d="M342.85,168c1.14,4.43,2.95,18.37,3.69,26.82.32,4.18.49,8.36.73,12.38.17,5.25.41,10.66,1.07,16a1.53,1.53,0,1,1-3,.33c-.58-5.41-.91-10.91-1.15-16.16-.08-2.95-.25-5.9-.41-8.85a12.56,12.56,0,0,1-2,.08,5.45,5.45,0,0,0-1.8.16c-.17,1.15-.25,2.22-.33,3.37l-.49,6.23c-.17,2.7-.33,5.57-.66,8.36a31.32,31.32,0,0,1-1.39,6.89c-.58,1.8-3.78,1.23-2.87-1.07a26.77,26.77,0,0,0,1.23-6.23c.32-2.62.49-5.33.65-8.2l.49-6.31c.41-4.18.66-8.61,1-12.88l.49-8c.08-1.15.33-2.54.49-3.94.49-3.36.49-4.26.58-4.83a22.28,22.28,0,0,1,.57-3.94A1.58,1.58,0,0,1,342.85,168Zm-1.32,10.09-.41,3.12-.49,7.87-.49,6.56a9.12,9.12,0,0,1,1.48-.08,13.15,13.15,0,0,0,1.88-.09v-.41C343.09,190.38,342.35,183.66,341.53,178.08Z"/><path class="a" d="M365.48,223c-2.05-2.71-2.71-7.22-2.22-10.34a1.54,1.54,0,1,1,3,.41c-.41,2.79.32,6.32,1.64,8,.9,1.31,2.46.74,3.36-.08,1.31-1.23,1.88-4.84,1.47-7.22-.57-3.52-1-5.33-1.55-7.62-.33-1.4-.74-2.63-2.79-10.83l-.9-3.36c-1.15-4.1-2.55-9.18-3.12-12.14a40.39,40.39,0,0,1-.49-6.23c-.08-2.21.74-5.08,2.54-6.31a3.93,3.93,0,0,1,3.94-.25c3.69,1.56,4.67,6.89,4,10.17a1.56,1.56,0,0,1-3-.66c.49-2.13-.16-5.82-2.13-6.64s-2.3,2.71-2.3,3.69a45,45,0,0,0,.49,5.66c.58,2.87,2,8.12,3,11.89l.9,3.36,2.79,10.91c.57,2.38,1.06,4.26,1.64,7.87.49,3.28.08,7.54-2.38,9.92S367.44,225.48,365.48,223Z"/><path class="a" d="M385.81,167.34c2.38,0,3.45.08,4.51.16,2,.17,2.46.33,2.95.66a1.49,1.49,0,0,1-1.55,2.54,12.85,12.85,0,0,0-3.28-.25c-.09,2.79.08,4.92.32,9.11.33,5.16.5,10.74.74,17.63.08,1.64.08,3.77,0,5.57a99.84,99.84,0,0,0,.25,11.15q.24,4.18.24,8.86a1.52,1.52,0,1,1-3,0c0-3-.16-5.9-.33-8.69-.16-3.61-.33-7.3-.24-11.4.08-1.72.08-3.77,0-5.41l-.74-17.55c-.17-3.53-.41-6-.33-9.35a22.72,22.72,0,0,0-4.43.25,1.55,1.55,0,1,1-.65-3A30.3,30.3,0,0,1,385.81,167.34Z"/><path class="a" d="M402,167.09a9.78,9.78,0,0,1,5.17,5.66A39,39,0,0,1,409.18,183c.08,1.48.66,5.9.16,9.1a20.61,20.61,0,0,1-2.78,6.89,8.58,8.58,0,0,1-3.77,3.12c.9,2.29,2.7,6,3.27,7.13a55,55,0,0,1,3.28,7.71c.83,2.13,1.48,3.93,2.38,4.92a1.57,1.57,0,1,1-2.21,2.21c-1.15-1.23-2-3.36-3-6.07a59.39,59.39,0,0,0-3.11-7.38s-2.13-4.26-3.36-7.29c0,4.51,0,9.1.16,14.43,0,1.56.17,3.61.08,5.16a1.52,1.52,0,1,1-3,0c0-1.64-.08-2.37-.17-5.08-.16-8.12-.16-14.6-.08-21.48,0-1.64.08-3.28.08-4.92v-6.4c-.08-2-.08-4-.08-6v-3.19a47.07,47.07,0,0,1,.17-7.55c.24-1.72,1.39-1.23,2.05-1.39A4.13,4.13,0,0,1,402,167.09Zm-1.88,2.79a48.18,48.18,0,0,0-.08,5.9c0,1.07.08,2.14.08,3.28v17.31c-.08,1-.08,1.88-.08,2.87a1.23,1.23,0,0,1,1.55.08,4.82,4.82,0,0,0,2.46-2,17.55,17.55,0,0,0,2.3-5.82c.57-2.63,0-5.25-.25-8.2a31.68,31.68,0,0,0-1.88-9.6,6.64,6.64,0,0,0-3.36-3.77A1.14,1.14,0,0,0,400.08,169.88Z"/><path class="a" d="M423.2,168c1.15,4.43,2.95,18.37,3.69,26.82.33,4.18.49,8.36.74,12.38.16,5.25.41,10.66,1.07,16a1.54,1.54,0,1,1-3,.33c-.57-5.41-.9-10.91-1.15-16.16-.08-2.95-.24-5.9-.41-8.85a12.41,12.41,0,0,1-2,.08,5.52,5.52,0,0,0-1.81.16c-.16,1.15-.24,2.22-.33,3.37l-.49,6.23c-.16,2.7-.33,5.57-.65,8.36a31.36,31.36,0,0,1-1.4,6.89c-.57,1.8-3.77,1.23-2.87-1.07a25.78,25.78,0,0,0,1.23-6.23c.33-2.62.49-5.33.66-8.2l.49-6.31c.41-4.18.66-8.61,1-12.88l.5-8c.08-1.15.32-2.54.49-3.94.49-3.36.49-4.26.57-4.83a22.46,22.46,0,0,1,.58-3.94A1.58,1.58,0,0,1,423.2,168Zm-5.49-8c1.64-1.07,3.11,1.31,2.46,2.46a2,2,0,0,1-2.3.74C415.9,162.91,416.23,160.94,417.71,160Zm4.18,18.12-.41,3.12-.49,7.87-.49,6.56a9.06,9.06,0,0,1,1.47-.08,13.29,13.29,0,0,0,1.89-.09v-.41C423.45,190.38,422.71,183.66,421.89,178.08Zm3.36-15.33a2,2,0,0,1-.33-2.14,1.79,1.79,0,0,1,1.64-.82c1,0,2.79,1.23,1.73,2.55a2.51,2.51,0,0,1-1.81,1.06A1.45,1.45,0,0,1,425.25,162.75Z"/><path class="a" d="M448,168.81V169c-.32,3.2-.32,6.39-.32,9.51,0,2.3,0,4.76-.17,7.13-.24,5.25-.16,9.68,0,13.86.08,4.43.25,8.94-.08,14.35-.16,3.12-.16,6.73-.16,9.1a1.56,1.56,0,1,1-3.12,0c0-2.46.08-6.06.25-9.26.32-5.33.16-9.6.08-14.11-.16-3.19-.25-6.47-.16-10.16-1.07-1.56-2.87-5.09-4.93-9.11L436,173.82c-.16,3.28-.08,4.34-.08,6.31,0,2.62-.08,5.08-.08,7.87,0,4.27,0,7.14.25,12.63.16,3,.32,5.82.32,8.94,0,2-.16,3.69-.24,5.49a44.49,44.49,0,0,0-.17,8.2,1.52,1.52,0,1,1-3,.17,59.27,59.27,0,0,1,.08-8.61c.17-1.81.25-3.45.25-5.33,0-3-.08-5.74-.25-8.7-.16-3.28-.33-6.64-.33-12.79,0-2.79.08-5.25.08-7.95,0-1.31.09-2.71.09-4.1,0-2.54.08-5.17.24-7.55a1.47,1.47,0,0,1,2.71-.82c1.56,2,3.93,6.73,6.23,11.32l2.46,4.67c0-1.72.08-3.44.08-5.08a80,80,0,0,1,.33-9.84A1.52,1.52,0,1,1,448,168.81Z"/><path class="a" d="M464,206.86c-1.14,7.14-2.13,13.86-9.51,17.88a1.47,1.47,0,0,1-2.29-1.31c.16-2.22.16-4.27.32-6.32s.25-4.1.25-6.31c0-4.51.08-6.56.08-7.87,0-3.12-.08-5.5-.16-7.71-.08-1.23-.08-2.46-.08-3.69,0-2.54-.09-4-.17-5.5-.08-1.31-.16-2.78-.16-4.18,0-3.69-.25-7.54-.58-11.31-.08-1-.16-2-.16-3s.57-1.88,1.64-1.64a7,7,0,0,1,3.85,2.71,28,28,0,0,1,5.09,8.61,49.25,49.25,0,0,1,2.7,14.27c.09,1.47.17,2.87.17,4.26A65.46,65.46,0,0,1,464,206.86Zm-2.95-.49a94.75,94.75,0,0,0,.82-10.58c0-1.31,0-2.7-.08-4.1a43.8,43.8,0,0,0-2.62-13.36,23.4,23.4,0,0,0-4.35-7.63c.25,3.69.57,7.54.57,11.15,0,1.31,0,2.71.09,4,.16,3.2.16,3.77.16,5.58,0,1.23.08,2.46.08,3.69.08,2.21.17,4.59.17,7.79v7.87c0,2.29-.17,4.43-.33,6.56-.08,1-.17,2-.17,3.11C459.28,217,460.1,212,461,206.37Z"/><path class="a" d="M477.57,167.17a1.54,1.54,0,1,1-.25,3c-1-.08-1.72-.08-2.71-.08-.73,0-1,.08-2.54.08,0,.57-.08,1.56-.08,2.87a72.64,72.64,0,0,1,0,7.38,51.18,51.18,0,0,0-.25,7.71v5.57a25.05,25.05,0,0,0,3.53-.08,1.53,1.53,0,0,1,.41,3,19.06,19.06,0,0,1-3.77.17v1.31c.16,2.79.24,5.74.16,8.61-.08,7.22,0,10,.17,14.27h5.33a1.52,1.52,0,1,1,0,3h-6.81a1.54,1.54,0,0,1-1.56-1.47c-.16-5-.24-7.79-.16-15.91.08-2.79-.08-5.66-.17-8.45-.08-2.38-.16-4.84-.16-7.21v-2.79a55.56,55.56,0,0,1,.25-8,66.84,66.84,0,0,0,0-7.13,38.8,38.8,0,0,1,.16-4.68,1.39,1.39,0,0,1,1.48-1.23c.16,0,1.88-.08,3.93-.08A19.79,19.79,0,0,1,477.57,167.17Z"/><path class="a" d="M488.31,167.09a9.79,9.79,0,0,1,5.16,5.66,39,39,0,0,1,2,10.25c.09,1.48.66,5.9.17,9.1A20.62,20.62,0,0,1,492.9,199a8.58,8.58,0,0,1-3.77,3.12c.9,2.29,2.7,6,3.28,7.13a57.44,57.44,0,0,1,3.28,7.71c.82,2.13,1.47,3.93,2.38,4.92a1.57,1.57,0,1,1-2.22,2.21c-1.15-1.23-2-3.36-3-6.07a61.09,61.09,0,0,0-3.12-7.38s-2.13-4.26-3.36-7.29c0,4.51,0,9.1.16,14.43,0,1.56.17,3.61.09,5.16a1.52,1.52,0,1,1-3,0c0-1.64-.08-2.37-.16-5.08-.17-8.12-.17-14.6-.08-21.48,0-1.64.08-3.28.08-4.92v-6.4c-.08-2-.08-4-.08-6v-3.19a45.9,45.9,0,0,1,.16-7.55c.25-1.72,1.39-1.23,2-1.39A4.16,4.16,0,0,1,488.31,167.09Zm-1.89,2.79a48.18,48.18,0,0,0-.08,5.9c0,1.07.08,2.14.08,3.28v17.31c-.08,1-.08,1.88-.08,2.87a1.24,1.24,0,0,1,1.56.08,4.9,4.9,0,0,0,2.46-2,17.75,17.75,0,0,0,2.29-5.82c.58-2.63,0-5.25-.24-8.2a31.94,31.94,0,0,0-1.89-9.6,6.64,6.64,0,0,0-3.36-3.77A1.14,1.14,0,0,0,486.42,169.88Z"/><path class="a" d="M206.34,241.13a1.09,1.09,0,1,1-.17,2.15c-.7-.06-1.22-.06-1.92-.06-.53,0-.7.06-1.8.06,0,.41-.06,1.11-.06,2,0,1.74.17,3.37,0,5.23a35.22,35.22,0,0,0-.18,5.47v4a16.75,16.75,0,0,0,2.5-.06,1.09,1.09,0,0,1,.3,2.16,14.18,14.18,0,0,1-2.68.11v.93c.12,2,.17,4.08.12,6.12-.06,5.12,0,7.09.11,10.12h3.78a1.08,1.08,0,1,1,0,2.15h-4.83a1.09,1.09,0,0,1-1.1-1c-.12-3.55-.18-5.53-.12-11.29.06-2-.06-4-.11-6-.06-1.68-.12-3.43-.12-5.12v-2a39.37,39.37,0,0,1,.17-5.7,44.92,44.92,0,0,0,0-5.06,26,26,0,0,1,.12-3.32,1,1,0,0,1,1.05-.87c.11,0,1.34-.06,2.79-.06A13.19,13.19,0,0,1,206.34,241.13Z"/><path class="a" d="M221.18,242.29v.12a66.78,66.78,0,0,0-.23,6.75c0,1.63,0,3.37-.12,5.06-.17,3.72-.11,6.87,0,9.84.06,3.14.18,6.34-.05,10.18-.12,2.21-.12,4.77-.12,6.46a1.11,1.11,0,1,1-2.21,0c0-1.75.06-4.31.17-6.58.24-3.78.12-6.81.06-10-.12-2.27-.17-4.59-.12-7.21-.75-1.11-2-3.61-3.49-6.46l-2.38-4.6c-.12,2.33-.06,3.08-.06,4.48,0,1.86-.06,3.61-.06,5.59,0,3,0,5.06.18,9,.11,2.1.23,4.13.23,6.34,0,1.4-.12,2.62-.18,3.9a31.45,31.45,0,0,0-.11,5.82,1.09,1.09,0,1,1-2.16.12,42.16,42.16,0,0,1,.06-6.11c.12-1.28.18-2.45.18-3.78,0-2.1-.06-4.08-.18-6.17-.12-2.33-.23-4.72-.23-9.08,0-2,.06-3.73.06-5.65,0-.93.05-1.92.05-2.91,0-1.8.06-3.66.18-5.35a1,1,0,0,1,1.92-.58,65.69,65.69,0,0,1,4.42,8l1.75,3.32c0-1.23.06-2.45.06-3.61a57.07,57.07,0,0,1,.23-7A1.08,1.08,0,1,1,221.18,242.29Z"/><path class="a" d="M224.62,281.4a1.11,1.11,0,0,1-.88-1.22v-.88c-.23-3,.24-4.59.12-8.67-.06-1.86,0-4,.06-6.05.12-5.24-.06-9.95-.06-14.72,0-5.24,0-6.58.12-7.92a1.08,1.08,0,1,1,2.15.18c-.23,2.67-.12,5.23-.12,7.74,0,7,.24,11,.06,14.89-.11,2-.11,4-.06,5.82.06,4.54-.34,5.94-.11,8.62a13.36,13.36,0,0,1,3.61.17,1.09,1.09,0,1,1-.59,2.1C227.41,281.05,225.55,281.63,224.62,281.4Z"/><path class="a" d="M233.23,280.29c.52-2.79.29-7.16.17-11.81-.17-3.78-.29-7.63-.17-11.29a84.74,84.74,0,0,0-.18-8.61c-.11-1.87-.11-2.91-.11-4a6.42,6.42,0,0,0-.06-2.21c-.52-1.63,1.8-2,2.1-.47a9.78,9.78,0,0,1,.11,2.68c0,1,.06,2,.12,3.84a75.3,75.3,0,0,1,.17,8.79c-.11,3.6,0,7.45.18,11.11.06,4.19.46,8.27-.18,12.28A1.09,1.09,0,1,1,233.23,280.29Z"/><path class="a" d="M248.24,275.4A13,13,0,0,1,248,278c-.46,1.87-2.15,4.49-4.25,4.14s-3.6-2-4.07-4.48a62.71,62.71,0,0,1-.87-8c-.12-2.09-.18-3.66-.24-5.58-.05-1-.23-3.26-.29-5.12v-8.21c0-.81,0-1.63.06-2.44,0-1.34.18-5.42,2.91-7a5,5,0,0,1,2.68-.52c1.74.06,1.57,2.33,0,2.15a2.2,2.2,0,0,0-1.57.24c-1.17.64-1.75,2.44-1.86,5.23-.06.82-.06,1.58-.06,2.39v5.7c0,.82,0,1.63.29,7.57.06,1.92.11,3.49.23,5.53a68,68,0,0,0,.82,7.74c.17.75.64,2.44,2.27,2.73,1,0,1.68-1.74,1.86-2.5a11.27,11.27,0,0,0,.23-2.21c.06-1.57.29-3,.41-4.31v-.7l-1.28.18-2.1.17a1.11,1.11,0,1,1,0-2.21c.58,0,1.22-.06,1.86-.11a12.88,12.88,0,0,1,2.62-.18,1.12,1.12,0,0,1,1.05,1,7.21,7.21,0,0,1,0,2A42.55,42.55,0,0,0,248.24,275.4Z"/><path class="a" d="M256.16,241.24c1.69,0,2.44.06,3.2.12a4.13,4.13,0,0,1,2.09.46,1.06,1.06,0,0,1-1.1,1.81,9,9,0,0,0-2.33-.18c-.06,2,.06,3.5.23,6.46.24,3.67.35,7.63.53,12.52.05,1.16.05,2.67,0,3.95a71.24,71.24,0,0,0,.17,7.92q.18,3,.18,6.28a1.08,1.08,0,1,1-2.16,0c0-2.15-.11-4.19-.23-6.17-.12-2.56-.23-5.17-.18-8.08.06-1.23.06-2.68,0-3.85L256,250c-.12-2.5-.29-4.25-.23-6.63a16.72,16.72,0,0,0-3.14.17,1.1,1.1,0,1,1-.47-2.15A20.45,20.45,0,0,1,256.16,241.24Z"/><path class="a" d="M279.9,241.88c.06,1.63.12,3.38.06,5.18,0,1.28-.06,2.5-.12,3.73-.06,2.09-.17,4.25-.17,6.4,0,3.9.17,7.8.29,11.58s.29,7.68.29,11.64a1.11,1.11,0,0,1-2.21,0c0-3.9-.12-7.8-.23-11.58-.12-2.5-.18-5.07-.24-7.68l-1.74.17-1.87.18c0,1.22,0,2.26,0,3.25,0,3.26-.06,6.06,0,10.54v4.89a1.08,1.08,0,1,1-2.15,0v-4.83c-.11-4.54-.11-7.34-.06-10.6,0-1.74.06-3.49.06-5.76,0-5.76,0-11.05-.17-16.87a1.08,1.08,0,1,1,2.15-.06c.17,5.76.17,11.17.17,16.93v.35l1.63-.17,1.92-.18v-1.8c0-2.15.12-4.37.18-6.46l.12-3.73c0-3.55-.06-4.3-.06-5.12A1.08,1.08,0,1,1,279.9,241.88Z"/><path class="a" d="M289.79,241.71c.82,3.14,2.1,13,2.62,19,.24,3,.35,5.93.53,8.79.11,3.72.29,7.56.75,11.34a1.09,1.09,0,1,1-2.15.24c-.41-3.84-.64-7.74-.82-11.47-.05-2.09-.17-4.19-.29-6.28a8.31,8.31,0,0,1-1.39.06,4,4,0,0,0-1.28.11c-.12.82-.18,1.57-.24,2.39l-.35,4.42c-.11,1.92-.23,4-.46,5.94a22.11,22.11,0,0,1-1,4.89c-.41,1.28-2.68.87-2-.76a18.63,18.63,0,0,0,.88-4.42c.23-1.87.35-3.79.46-5.82l.35-4.48c.29-3,.47-6.12.7-9.14l.35-5.65c.06-.81.23-1.8.35-2.79.35-2.39.35-3,.4-3.43a16.34,16.34,0,0,1,.41-2.8A1.12,1.12,0,0,1,289.79,241.71Zm-.93,7.16-.29,2.21-.35,5.58-.35,4.66a6.17,6.17,0,0,1,1.05-.06,10,10,0,0,0,1.34-.06v-.29C290,257.6,289.44,252.82,288.86,248.87Z"/><path class="a" d="M307.37,242.29v.12a66.78,66.78,0,0,0-.23,6.75c0,1.63,0,3.37-.12,5.06-.18,3.72-.12,6.87,0,9.84.06,3.14.17,6.34-.06,10.18-.12,2.21-.12,4.77-.12,6.46a1.11,1.11,0,1,1-2.21,0c0-1.75.06-4.31.18-6.58.23-3.78.11-6.81.06-10-.12-2.27-.18-4.59-.12-7.21-.76-1.11-2-3.61-3.49-6.46l-2.39-4.6c-.11,2.33-.06,3.08-.06,4.48,0,1.86-.05,3.61-.05,5.59,0,3,0,5.06.17,9,.12,2.1.23,4.13.23,6.34,0,1.4-.11,2.62-.17,3.9a31.39,31.39,0,0,0-.12,5.82,1.08,1.08,0,1,1-2.15.12,40.78,40.78,0,0,1,.06-6.11c.11-1.28.17-2.45.17-3.78,0-2.1-.06-4.08-.17-6.17-.12-2.33-.24-4.72-.24-9.08,0-2,.06-3.73.06-5.65,0-.93.06-1.92.06-2.91,0-1.8.06-3.66.17-5.35a1,1,0,0,1,1.93-.58,67.08,67.08,0,0,1,4.42,8l1.74,3.32c0-1.23.06-2.45.06-3.61a57.07,57.07,0,0,1,.23-7A1.08,1.08,0,1,1,307.37,242.29Z"/><path class="a" d="M320.64,242.29v.12a64,64,0,0,0-.24,6.75c0,1.63,0,3.37-.11,5.06-.18,3.72-.12,6.87,0,9.84.06,3.14.17,6.34-.06,10.18-.12,2.21-.12,4.77-.12,6.46a1.11,1.11,0,1,1-2.21,0c0-1.75.06-4.31.18-6.58.23-3.78.11-6.81.05-10-.11-2.27-.17-4.59-.11-7.21-.76-1.11-2-3.61-3.49-6.46l-2.39-4.6c-.12,2.33-.06,3.08-.06,4.48,0,1.86-.06,3.61-.06,5.59,0,3,0,5.06.18,9,.12,2.1.23,4.13.23,6.34,0,1.4-.11,2.62-.17,3.9a31.39,31.39,0,0,0-.12,5.82,1.08,1.08,0,1,1-2.15.12,42.27,42.27,0,0,1,.05-6.11c.12-1.28.18-2.45.18-3.78,0-2.1-.06-4.08-.18-6.17-.11-2.33-.23-4.72-.23-9.08,0-2,.06-3.73.06-5.65,0-.93.06-1.92.06-2.91,0-1.8.06-3.66.17-5.35a1,1,0,0,1,1.92-.58,65.48,65.48,0,0,1,4.43,8l1.74,3.32c0-1.23.06-2.45.06-3.61a57.07,57.07,0,0,1,.23-7A1.08,1.08,0,1,1,320.64,242.29Z"/><path class="a" d="M329.25,241.71c.81,3.14,2.09,13,2.62,19,.23,3,.35,5.93.52,8.79.12,3.72.29,7.56.76,11.34a1.09,1.09,0,1,1-2.15.24c-.41-3.84-.64-7.74-.82-11.47-.06-2.09-.17-4.19-.29-6.28a8.45,8.45,0,0,1-1.4.06,4,4,0,0,0-1.28.11c-.11.82-.17,1.57-.23,2.39l-.35,4.42c-.12,1.92-.23,4-.46,5.94a22.7,22.7,0,0,1-1,4.89c-.41,1.28-2.68.87-2-.76A18.62,18.62,0,0,0,324,276c.24-1.87.35-3.79.47-5.82l.35-4.48c.29-3,.46-6.12.7-9.14l.34-5.65c.06-.81.24-1.8.35-2.79.35-2.39.35-3,.41-3.43a16.34,16.34,0,0,1,.41-2.8A1.12,1.12,0,0,1,329.25,241.71Zm-.93,7.16-.29,2.21-.35,5.58-.35,4.66a6.17,6.17,0,0,1,1.05-.06,10.09,10.09,0,0,0,1.34-.06v-.29C329.42,257.6,328.9,252.82,328.32,248.87Z"/><path class="a" d="M75.73,183.7c-.17,1.89-.33,3.94-.58,5.82-.24,2-.57,4.19-.65,6.24S74,200.18,73,207c-.24,2.13-1.39,14.19-1.48,16.24-.08,1.88-2.7,1.8-3,.32-1.8-7.79-2.71-11.89-3.69-17.54-.25-1.48-.49-2.55-.66-3.61A52.39,52.39,0,0,1,63,195.92c-.41-3.2-.82-5.9-1.23-8.53-.41-2.87-1.07-5.82-1.32-9.26l-.24-3.2a26.61,26.61,0,0,0-1-6c-.82-2.13,2-3,2.88-1a25.5,25.5,0,0,1,1.14,6.72l.25,3c.24,3.44.9,6.23,1.31,9.18.41,2.71.82,5.41,1.23,8.69.25,2.13.66,4.1,1.07,6.23.24,1.07.49,2.14.73,3.61l1.48,7.79.66-6.56c1-6.89,1.31-8.28,1.47-11.15.08-2,.41-4.18.66-6.31l.57-5.74c.49-7.06.74-10.75,1.31-15.17a1.53,1.53,0,0,1,3,.32C76.38,174.52,76.14,179.11,75.73,183.7Z"/><path class="a" d="M89.75,167.88c1.15,4.42,3,18.36,3.69,26.81.33,4.18.49,8.36.74,12.38.16,5.25.41,10.66,1.06,16a1.53,1.53,0,1,1-3,.33c-.58-5.41-.9-10.91-1.15-16.15-.08-3-.25-5.91-.41-8.86a12.56,12.56,0,0,1-2,.08,5.15,5.15,0,0,0-1.8.17c-.17,1.14-.25,2.21-.33,3.36l-.49,6.23c-.17,2.71-.33,5.58-.66,8.36A30.75,30.75,0,0,1,84,223.47c-.58,1.81-3.77,1.23-2.87-1.06a26.45,26.45,0,0,0,1.23-6.24c.33-2.62.49-5.33.65-8.2l.5-6.31c.41-4.18.65-8.61,1-12.87l.49-8c.08-1.15.33-2.54.49-3.93.5-3.37.5-4.27.58-4.84a22.41,22.41,0,0,1,.57-3.94A1.58,1.58,0,0,1,89.75,167.88Zm-5.5-8c1.64-1.07,3.12,1.31,2.46,2.46a1.93,1.93,0,0,1-2.29.74C82.45,162.79,82.78,160.82,84.25,159.84ZM88.44,178,88,181.08,87.54,189l-.5,6.56a9.24,9.24,0,0,1,1.48-.08,14.78,14.78,0,0,0,1.88-.08v-.41C90,190.26,89.26,183.54,88.44,178Zm3.36-15.33a2,2,0,0,1-.33-2.13,1.79,1.79,0,0,1,1.64-.82c1,0,2.79,1.23,1.72,2.54a2.47,2.47,0,0,1-1.8,1.06A1.44,1.44,0,0,1,91.8,162.63Z"/><path class="a" d="M104.34,167a9.81,9.81,0,0,1,5.17,5.66,39,39,0,0,1,2,10.25c.08,1.48.65,5.91.16,9.1a20.33,20.33,0,0,1-2.79,6.89,8.47,8.47,0,0,1-3.77,3.12c.9,2.29,2.71,6,3.28,7.13a56.7,56.7,0,0,1,3.28,7.71c.82,2.13,1.48,3.94,2.38,4.92a1.57,1.57,0,1,1-2.21,2.21c-1.15-1.23-2-3.36-3-6.06a59.64,59.64,0,0,0-3.11-7.38s-2.14-4.27-3.37-7.3c0,4.51,0,9.1.17,14.43,0,1.56.16,3.61.08,5.17a1.52,1.52,0,1,1-3,0c0-1.64-.09-2.38-.17-5.09-.16-8.12-.16-14.59-.08-21.48,0-1.64.08-3.28.08-4.92v-6.4c-.08-2-.08-4-.08-6v-3.2a48.21,48.21,0,0,1,.16-7.55c.25-1.72,1.4-1.23,2-1.39A4.22,4.22,0,0,1,104.34,167Zm-1.88,2.79a46.4,46.4,0,0,0-.09,5.91c0,1.06.09,2.13.09,3.28v17.3c-.09,1-.09,1.88-.09,2.87a1.24,1.24,0,0,1,1.56.08,4.77,4.77,0,0,0,2.46-2,17.55,17.55,0,0,0,2.3-5.82c.57-2.63,0-5.25-.25-8.2a32,32,0,0,0-1.88-9.6,6.73,6.73,0,0,0-3.36-3.77A1.14,1.14,0,0,0,102.46,169.76Z"/><path class="a" d="M118.28,223.8a1.54,1.54,0,0,1-1.23-1.72v-1.23c-.33-4.27.33-6.48.17-12.22-.09-2.62,0-5.58.08-8.53.16-7.38-.08-14-.08-20.74,0-7.38,0-9.27.16-11.16a1.53,1.53,0,1,1,3,.25c-.33,3.77-.17,7.38-.17,10.91,0,9.84.33,15.49.08,21-.16,2.79-.16,5.66-.08,8.2.08,6.39-.49,8.36-.16,12.13,1,.09,3.28-.32,5.08.25a1.53,1.53,0,1,1-.82,2.95C122.22,223.31,119.59,224.13,118.28,223.8Z"/><path class="a" d="M142.39,206.74c-1.15,7.14-2.13,13.86-9.51,17.88a1.47,1.47,0,0,1-2.3-1.31c.17-2.22.17-4.27.33-6.32s.25-4.1.25-6.31c0-4.51.08-6.56.08-7.87,0-3.12-.08-5.5-.17-7.71-.08-1.23-.08-2.46-.08-3.69,0-2.54-.08-4-.16-5.49-.08-1.32-.17-2.79-.17-4.19,0-3.69-.24-7.54-.57-11.31-.08-1-.16-2-.16-2.95s.57-1.89,1.64-1.64a7,7,0,0,1,3.85,2.7,28.12,28.12,0,0,1,5.08,8.61,49.59,49.59,0,0,1,2.71,14.27c.08,1.48.16,2.87.16,4.26A66.55,66.55,0,0,1,142.39,206.74Zm-2.95-.49a94.75,94.75,0,0,0,.82-10.58c0-1.31,0-2.7-.08-4.1a43.51,43.51,0,0,0-2.63-13.36,23.48,23.48,0,0,0-4.34-7.63c.24,3.69.57,7.55.57,11.15,0,1.32,0,2.71.08,4,.17,3.2.17,3.77.17,5.58,0,1.23.08,2.46.08,3.69.08,2.21.16,4.59.16,7.79v7.87c0,2.3-.16,4.43-.33,6.56-.08,1-.16,2-.16,3.12C137.72,216.91,138.54,211.91,139.44,206.25Z"/><path class="a" d="M156,167.06a1.53,1.53,0,1,1-.24,3c-1-.08-1.73-.08-2.71-.08-.74,0-1,.08-2.54.08,0,.57-.08,1.56-.08,2.87,0,2.46.24,4.76,0,7.38a51.21,51.21,0,0,0-.25,7.71v5.57a23.67,23.67,0,0,0,3.53-.08,1.54,1.54,0,0,1,.41,3,19.94,19.94,0,0,1-3.78.16v1.31c.17,2.79.25,5.74.17,8.61-.08,7.22,0,10,.16,14.27H156a1.52,1.52,0,1,1,0,3h-6.8a1.53,1.53,0,0,1-1.56-1.47c-.17-5-.25-7.79-.17-15.91.09-2.79-.08-5.66-.16-8.45-.08-2.37-.16-4.83-.16-7.21v-2.79a54,54,0,0,1,.24-8,64.14,64.14,0,0,0,0-7.13,35.29,35.29,0,0,1,.17-4.67,1.37,1.37,0,0,1,1.47-1.23c.17,0,1.89-.09,3.94-.09A18.57,18.57,0,0,1,156,167.06Z"/><path class="a" d="M176.91,168.7v.16a92.45,92.45,0,0,0-.33,9.51c0,2.3,0,4.76-.16,7.14-.25,5.24-.17,9.67,0,13.85.08,4.43.25,8.94-.08,14.35-.17,3.12-.17,6.73-.17,9.11a1.56,1.56,0,1,1-3.11,0c0-2.46.08-6.07.24-9.27.33-5.33.17-9.59.09-14.1-.17-3.2-.25-6.48-.17-10.17-1.06-1.56-2.87-5.09-4.92-9.1l-3.36-6.48c-.16,3.28-.08,4.34-.08,6.31,0,2.63-.08,5.09-.08,7.87,0,4.27,0,7.14.24,12.63.17,3,.33,5.82.33,8.94,0,2-.16,3.69-.25,5.49a44.55,44.55,0,0,0-.16,8.2,1.52,1.52,0,1,1-3,.17,57.89,57.89,0,0,1,.08-8.61c.16-1.81.24-3.45.24-5.33,0-3-.08-5.74-.24-8.69-.17-3.28-.33-6.65-.33-12.8,0-2.78.08-5.24.08-7.95,0-1.31.08-2.71.08-4.1,0-2.54.09-5.17.25-7.54a1.47,1.47,0,0,1,2.71-.82c1.55,2.05,3.93,6.72,6.23,11.31l2.46,4.68c0-1.73.08-3.45.08-5.09a80,80,0,0,1,.33-9.84A1.52,1.52,0,1,1,176.91,168.7Z"/><path class="a" d="M182.73,222.9c-2-2.71-2.7-7.22-2.21-10.33a1.53,1.53,0,1,1,3,.41c-.41,2.78.33,6.31,1.64,8,.9,1.31,2.46.74,3.36-.08,1.32-1.23,1.89-4.84,1.48-7.22a77.61,77.61,0,0,0-1.56-7.62c-.33-1.4-.74-2.63-2.79-10.83l-.9-3.36c-1.15-4.1-2.54-9.18-3.11-12.13a40.55,40.55,0,0,1-.5-6.24c-.08-2.21.74-5.08,2.55-6.31a4,4,0,0,1,3.93-.25c3.69,1.56,4.68,6.89,4,10.17a1.55,1.55,0,0,1-3-.65c.49-2.14-.17-5.83-2.14-6.65s-2.29,2.71-2.29,3.69a43.24,43.24,0,0,0,.49,5.66c.57,2.87,2,8.12,3,11.89l.91,3.36,2.78,10.91c.58,2.38,1.07,4.26,1.64,7.87.5,3.28.09,7.55-2.37,9.92S184.7,225.36,182.73,222.9Z"/><path class="a" d="M213.81,167.22c2.38,0,3.44.08,4.51.16,2,.17,2.46.33,3,.66a1.5,1.5,0,0,1-1.56,2.54,13.33,13.33,0,0,0-3.28-.24c-.08,2.78.08,4.92.33,9.1.33,5.16.49,10.74.74,17.63.08,1.64.08,3.77,0,5.57a97.67,97.67,0,0,0,.25,11.16c.16,2.78.24,5.74.24,8.85a1.52,1.52,0,1,1-3,0c0-3-.17-5.9-.33-8.69-.17-3.61-.33-7.3-.25-11.4.08-1.72.08-3.77,0-5.41l-.74-17.55c-.16-3.52-.4-6-.32-9.35a22.67,22.67,0,0,0-4.43.25,1.55,1.55,0,1,1-.66-3A29.52,29.52,0,0,1,213.81,167.22Z"/><path class="a" d="M225.45,222.24c.74-3.93.41-10.08.25-16.64-.25-5.33-.41-10.75-.25-15.91.17-4.43,0-7.14-.24-12.14-.17-2.62-.17-4.1-.17-5.57a9,9,0,0,0-.08-3.12c-.74-2.3,2.54-2.79,2.95-.66a13.52,13.52,0,0,1,.17,3.78c0,1.39.08,2.78.16,5.41a106.79,106.79,0,0,1,.25,12.38c-.17,5.08,0,10.5.24,15.66.08,5.91.66,11.65-.24,17.3A1.54,1.54,0,1,1,225.45,222.24Z"/><path class="a" d="M247,200.43c-.49,4.26.32,8.12-.08,12.14-.17,1.8-.41,3.69-.82,6.06l-.25,1.56a5.68,5.68,0,0,1-5,4.68c-2.54.08-4.68-1.64-5.66-4.76s-1.23-4.67-2.13-10.41a39.5,39.5,0,0,1-.58-5.83c0-2.13.17-4.1.25-5.57.08-1.15.08-2.3.08-3.77,0-2.14-.08-3.28-.08-8.29a85.91,85.91,0,0,1,.57-10.66,19.9,19.9,0,0,1,1.23-5.49,6.58,6.58,0,0,1,4.92-4c4.19-.49,6.56,3.86,6.89,7.3.17,2,.66,3.94.66,5.82,0,1.23-.08,1.89-.08,2.54-.09,2.79.24,4.1.32,6.32.08,1.23.08,2.54.08,3.85A80.48,80.48,0,0,1,247,200.43Zm-2.71-8.53c0-1.23,0-2.54-.08-3.69a58.69,58.69,0,0,1-.33-6.48c0-.73.08-1.39.08-2.54a54.09,54.09,0,0,0-.65-5.49c-.17-1.81-1.23-4.92-3.45-4.59a3.67,3.67,0,0,0-2.54,2.21,15.69,15.69,0,0,0-1,4.67,79.2,79.2,0,0,0-.58,10.25c0,1.23,0,2.55.09,8.29,0,1.47,0,2.7-.09,3.85-.08,1.8-.24,3.94-.24,5.49a34.84,34.84,0,0,0,.57,5.33,54.93,54.93,0,0,0,2,10c.33,1,1.15,2.62,2.71,2.54a2.35,2.35,0,0,0,2-2.13l.25-1.48c.41-2.29.66-4.1.82-5.82.33-3.94-.24-6.23.08-12.14C244.15,197.15,244.31,194.44,244.31,191.9Z"/><circle class="b" cx="267" cy="88" r="53"/><path class="c" d="M268.45,122.37V49.72c0-.46-.65-.82-1.45-.82s-1.45.38-1.45.82v72.67h2.9Z"/><path class="d" d="M267,51.57h0c-19.52,0-35.33,13.65-35.33,30.48h70.66C302.33,65.2,286.52,51.57,267,51.57Z"/><path class="e" d="M267,51.57h0c-13.94,0-25.24,13.65-25.24,30.48h50.48C292.24,65.2,280.94,51.57,267,51.57Z"/><path class="d" d="M267,51.57h0c-8.37,0-15.14,13.65-15.14,30.48h30.28C282.14,65.2,275.37,51.57,267,51.57Z"/><path class="e" d="M267,51.57h0c-2.8,0-5.05,13.65-5.05,30.48h10.1C272.05,65.2,269.8,51.57,267,51.57Z"/><path class="f" d="M302.33,82c0,1.91-2.25,3.45-5,3.45s-5.05-1.56-5.05-3.45"/><path class="g" d="M292.24,82c0,1.91-2.25,3.45-5.05,3.45s-5.05-1.56-5.05-3.45"/><path class="f" d="M282.14,82c0,1.91-2.25,3.45-5,3.45s-5.05-1.56-5.05-3.45"/><path class="g" d="M272.05,82c0,1.91-2.25,3.45-5.05,3.45S262,83.92,262,82"/><path class="f" d="M262,82c0,1.91-2.25,3.45-5.05,3.45s-5-1.56-5-3.45"/><path class="g" d="M251.86,82c0,1.91-2.25,3.45-5.05,3.45s-5.05-1.56-5.05-3.45"/><path class="f" d="M241.76,82c0,1.91-2.25,3.45-5,3.45s-5-1.56-5-3.45"/><path class="h" d="M267,141a52.94,52.94,0,0,0,42.15-20.88h-84.3A52.94,52.94,0,0,0,267,141Z"/></svg>